<?xml version="1.0" encoding="utf-8"?>
<!-- Generator: Adobe Illustrator 16.0.0, SVG Export Plug-In . SVG Version: 6.00 Build 0)  -->
<!DOCTYPE svg PUBLIC "-//W3C//DTD SVG 1.1//EN" "http://www.w3.org/Graphics/SVG/1.1/DTD/svg11.dtd">
<svg version="1.1" id="Layer_1" xmlns="http://www.w3.org/2000/svg" xmlns:xlink="http://www.w3.org/1999/xlink" x="0px" y="0px"
	 width="92px" height="92px" viewBox="0 0 92 92" enable-background="new 0 0 92 92" xml:space="preserve">
<g>
	<g>
		<path fill="#EF395F" d="M48.975,75.655c-0.868,0-1.572-0.704-1.572-1.572c0-0.867,0.704-1.571,1.572-1.571
			c8.084,0,14.66-6.576,14.66-14.661v-7.274c0-2.054-0.426-4.056-1.268-5.949c-0.021-0.045-0.039-0.092-0.055-0.137l-7.225-15.213
			c-0.101-0.211-0.152-0.441-0.152-0.674v-5.688c0-1.892-1.538-3.432-3.429-3.432s-3.429,1.54-3.429,3.432v7.49l1.553,3.265
			c0.373,0.783,0.04,1.722-0.744,2.093c-0.782,0.375-1.721,0.041-2.094-0.744l-1.705-3.584c-0.1-0.211-0.152-0.44-0.152-0.674
			v-7.846c0-3.626,2.947-6.574,6.571-6.574c3.623,0,6.571,2.948,6.571,6.574v5.332l7.151,15.057c0.034,0.07,0.062,0.144,0.084,0.218
			c0.972,2.246,1.465,4.618,1.465,7.054v7.274C66.778,67.668,58.791,75.655,48.975,75.655z"/>
		<path fill="#00BFDF" d="M51.356,45.872h-8.088c-0.156,0-0.308-0.015-0.459-0.034c-0.151,0.02-0.303,0.034-0.458,0.034h-8.089
			c-3.603,0-6.534-2.931-6.534-6.534s2.931-6.534,6.534-6.534h8.089c0.155,0,0.307,0.015,0.458,0.034
			c0.151-0.02,0.303-0.034,0.459-0.034h8.088c3.604,0,6.535,2.931,6.535,6.534S54.96,45.872,51.356,45.872z M42.81,42.684
			c0.047,0,0.095,0.002,0.142,0.006c0.08,0.008,0.16,0.018,0.239,0.028l0.096,0.013l8.069-0.001c1.87,0,3.392-1.521,3.392-3.392
			c0-1.871-1.521-3.393-3.392-3.393l-8.175,0.014c-0.076,0.009-0.153,0.019-0.229,0.026c-0.094,0.008-0.189,0.008-0.284,0
			c-0.077-0.008-0.153-0.018-0.23-0.026l-0.103-0.014h-8.074c-1.87,0-3.391,1.521-3.391,3.393c0,1.87,1.521,3.392,3.391,3.392
			l8.167-0.012c0.079-0.011,0.159-0.021,0.239-0.028C42.715,42.686,42.762,42.684,42.81,42.684z"/>
		<path fill="#00BFDF" d="M51.356,65.726h-8.088c-0.156,0-0.308-0.015-0.459-0.034c-0.151,0.02-0.303,0.034-0.458,0.034h-8.089
			c-3.603,0-6.534-2.931-6.534-6.534c0-3.602,2.931-6.533,6.534-6.533h8.089c0.155,0,0.307,0.015,0.458,0.033
			c0.151-0.019,0.303-0.033,0.459-0.033h8.088c3.604,0,6.535,2.932,6.535,6.533C57.892,62.795,54.96,65.726,51.356,65.726z
			 M42.81,62.537c0.047,0,0.095,0.004,0.142,0.007c0.075,0.008,0.15,0.017,0.224,0.026c0.035,0.004,0.07,0.012,0.105,0.014
			l8.075-0.002c1.87,0,3.392-1.52,3.392-3.391c0-1.869-1.521-3.391-3.392-3.391h-8.088c-0.022,0.002-0.057,0.008-0.092,0.012
			c-0.074,0.01-0.149,0.02-0.224,0.026c-0.094,0.009-0.189,0.009-0.284,0c-0.076-0.007-0.15-0.017-0.225-0.025
			c-0.036-0.005-0.07-0.011-0.106-0.013h-8.076c-1.87,0-3.391,1.521-3.391,3.391c0,1.871,1.521,3.391,3.391,3.391h8.089
			c0.022,0,0.057-0.008,0.093-0.012c0.074-0.01,0.149-0.019,0.225-0.026C42.715,62.541,42.762,62.537,42.81,62.537z"/>
		<path fill="#00BFDF" d="M48.373,75.653h-2.401c-0.156,0-0.308-0.015-0.459-0.035c-0.151,0.021-0.303,0.035-0.459,0.035h-4.765
			c-0.157,0-0.309-0.015-0.461-0.035c-0.15,0.021-0.302,0.035-0.458,0.035h-2.403c-3.604,0-6.536-2.932-6.536-6.534
			c0-3.604,2.932-6.537,6.536-6.537h2.403c0.156,0,0.308,0.016,0.458,0.035c0.152-0.02,0.304-0.035,0.461-0.035h4.765
			c0.156,0,0.308,0.016,0.459,0.035c0.151-0.02,0.304-0.035,0.459-0.035h2.401c3.604,0,6.536,2.933,6.536,6.537
			C54.909,72.722,51.977,75.653,48.373,75.653z M45.512,72.464c0.047,0,0.095,0.002,0.142,0.006c0.08,0.008,0.159,0.019,0.238,0.028
			l0.098,0.014l2.383-0.001c1.871,0,3.393-1.521,3.393-3.392c0-1.872-1.521-3.394-3.393-3.394l-2.481,0.011
			c-0.08,0.012-0.159,0.022-0.238,0.029c-0.095,0.009-0.19,0.009-0.285,0c-0.079-0.007-0.157-0.018-0.236-0.029l-0.099-0.012
			l-4.826,0.012c-0.079,0.012-0.158,0.022-0.238,0.029c-0.095,0.009-0.189,0.009-0.284,0c-0.081-0.007-0.16-0.018-0.239-0.029
			l-0.097-0.012l-2.384,0.001c-1.871,0-3.393,1.521-3.393,3.394c0,1.87,1.522,3.392,3.393,3.392l2.48-0.013
			c0.079-0.01,0.159-0.021,0.239-0.028c0.095-0.009,0.189-0.009,0.284,0c0.08,0.008,0.159,0.019,0.238,0.028l0.099,0.014
			l4.826-0.014c0.079-0.01,0.157-0.021,0.236-0.027C45.416,72.466,45.464,72.464,45.512,72.464z"/>
		<path fill="#00BFDF" d="M52.09,55.801H31.757c-3.604,0-6.537-2.932-6.537-6.537c0-3.603,2.932-6.534,6.537-6.534H52.09
			c3.604,0,6.535,2.932,6.535,6.534C58.625,52.869,55.693,55.801,52.09,55.801z M31.757,45.872c-1.872,0-3.394,1.521-3.394,3.392
			c0,1.872,1.522,3.395,3.394,3.395H52.09c1.871,0,3.393-1.522,3.393-3.395c0-1.87-1.521-3.392-3.393-3.392H31.757z"/>
	</g>
	<path fill="#00BFDF" d="M79.293,91.961H12.707c-6.986,0-12.669-5.683-12.669-12.669V12.706c0-6.985,5.683-12.668,12.669-12.668
		h66.586c6.986,0,12.67,5.683,12.67,12.668v66.586C91.963,86.278,86.279,91.961,79.293,91.961z M12.707,3.18
		c-5.253,0-9.526,4.273-9.526,9.526v66.586c0,5.253,4.273,9.526,9.526,9.526h66.586c5.254,0,9.527-4.273,9.527-9.526V12.706
		c0-5.253-4.273-9.526-9.527-9.526H12.707z"/>
</g>
</svg>
