<?xml version="1.0" encoding="utf-8"?>
<!-- Generator: Adobe Illustrator 16.0.0, SVG Export Plug-In . SVG Version: 6.00 Build 0)  -->
<!DOCTYPE svg PUBLIC "-//W3C//DTD SVG 1.1//EN" "http://www.w3.org/Graphics/SVG/1.1/DTD/svg11.dtd">
<svg version="1.1" id="Layer_1" xmlns="http://www.w3.org/2000/svg" xmlns:xlink="http://www.w3.org/1999/xlink" x="0px" y="0px"
	 width="92px" height="92px" viewBox="0 0 92 92" enable-background="new 0 0 92 92" xml:space="preserve">
<g>
	<g>
		<g>
			<path fill="#EF395F" d="M56.516,65.884L56.516,65.884c-1.912,0-3.658-1.199-4.344-2.983c-0.285-0.739-0.375-1.522-0.273-2.287
				c-1.539-0.311-2.863-1.395-3.439-2.894c-0.291-0.753-0.371-1.536-0.271-2.286c-1.542-0.31-2.864-1.395-3.442-2.893
				c-0.595-1.547-0.307-3.22,0.617-4.46c-0.586-0.495-1.053-1.135-1.338-1.874c-0.446-1.16-0.414-2.426,0.091-3.562
				c0.505-1.137,1.422-2.008,2.583-2.454l12.686-4.886l-0.742-0.33c-1.131-0.503-1.996-1.414-2.441-2.567s-0.412-2.411,0.09-3.54
				c0.74-1.67,2.4-2.752,4.232-2.752c0.646,0,1.277,0.135,1.873,0.399l5.529,2.455c0.025,0.01,0.051,0.02,0.074,0.03l7.387,3.28
				c2.934,1.145,5.26,3.475,6.385,6.397l1.951,5.072c2.219,5.758-0.662,12.246-6.42,14.463l-19.113,7.359
				C57.652,65.778,57.09,65.884,56.516,65.884z M55.406,56.778c0.633,0,1.229,0.384,1.469,1.007
				c0.311,0.811-0.094,1.721-0.902,2.031c-0.377,0.145-0.676,0.428-0.84,0.797s-0.174,0.78-0.027,1.157
				c0.289,0.755,1.188,1.162,1.955,0.868l19.111-7.358c4.141-1.595,6.213-6.261,4.619-10.403l-1.953-5.071
				c-0.811-2.107-2.496-3.788-4.621-4.608c-0.023-0.011-0.049-0.02-0.072-0.029l-7.352-3.265c-0.025-0.01-0.049-0.021-0.074-0.031
				l-5.596-2.485c-0.736-0.328-1.639,0.031-1.959,0.756c-0.162,0.363-0.174,0.766-0.029,1.136c0.143,0.37,0.42,0.663,0.783,0.825
				l4.209,1.869c0.58,0.257,0.949,0.84,0.934,1.476c-0.018,0.636-0.414,1.198-1.006,1.427l-16.229,6.248
				c-0.377,0.146-0.674,0.429-0.838,0.798c-0.164,0.369-0.176,0.78-0.029,1.157c0.29,0.753,1.188,1.16,1.956,0.869v-0.001
				c0.812-0.312,1.719,0.094,2.031,0.902c0.311,0.81-0.092,1.719-0.902,2.03c-0.002,0.001-0.004,0.002-0.006,0.003l-1.49,0.572
				c-0.777,0.3-1.168,1.179-0.867,1.956c0.289,0.753,1.188,1.166,1.955,0.87l1.494-0.577l0,0c0.811-0.311,1.719,0.092,2.031,0.9
				c0.312,0.81-0.09,1.719-0.9,2.031l-0.004,0.002c-0.777,0.302-1.164,1.178-0.865,1.954c0.291,0.753,1.189,1.162,1.957,0.868
				l1.494-0.575h0.002l0,0C55.029,56.812,55.221,56.778,55.406,56.778z"/>
			<path fill="#EF395F" d="M49.479,48.984c-0.631,0-1.227-0.383-1.467-1.008c-0.312-0.81,0.092-1.718,0.902-2.029l12.131-4.672
				c0.809-0.313,1.719,0.092,2.031,0.901c0.312,0.811-0.092,1.72-0.902,2.032l-12.131,4.67
				C49.857,48.951,49.666,48.984,49.479,48.984z"/>
			<path fill="#EF395F" d="M51.695,54.74c-0.633,0-1.227-0.383-1.467-1.007c-0.312-0.81,0.092-1.719,0.9-2.03l12.133-4.67
				c0.812-0.316,1.719,0.091,2.031,0.901c0.312,0.81-0.092,1.718-0.902,2.03l-12.131,4.67C52.072,54.708,51.883,54.74,51.695,54.74z
				"/>
			<path fill="#EF395F" d="M55.408,59.922c-0.631,0-1.227-0.384-1.467-1.008c-0.312-0.81,0.092-1.719,0.902-2.03l10.635-4.094
				c0.811-0.313,1.719,0.092,2.031,0.901c0.311,0.811-0.092,1.719-0.902,2.03l-10.635,4.095
				C55.785,59.888,55.596,59.922,55.408,59.922z"/>
			<path fill="#EF395F" d="M66.043,55.828c-0.631,0-1.227-0.384-1.467-1.009l-4.434-11.514c-0.311-0.81,0.094-1.718,0.902-2.03
				c0.809-0.313,1.719,0.092,2.031,0.901l4.434,11.515c0.311,0.811-0.092,1.719-0.902,2.03
				C66.422,55.794,66.23,55.828,66.043,55.828z"/>
		</g>
		<g>
			<path fill="#00BFDF" d="M35.484,65.884c-0.573,0-1.135-0.105-1.672-0.312l-19.115-7.359c-5.756-2.217-8.637-8.705-6.42-14.463
				l1.952-5.072c1.125-2.923,3.452-5.253,6.384-6.397L24,29c0.023-0.011,0.046-0.021,0.07-0.03l5.532-2.455
				c0.596-0.265,1.227-0.399,1.875-0.399c1.831,0,3.492,1.082,4.232,2.755c0.501,1.125,0.534,2.384,0.089,3.537
				c-0.444,1.152-1.311,2.064-2.439,2.567l-0.744,0.33l12.686,4.886c1.16,0.446,2.078,1.316,2.584,2.454
				c0.504,1.137,0.535,2.402,0.088,3.562c-0.283,0.74-0.75,1.379-1.334,1.874c0.922,1.24,1.211,2.912,0.616,4.46
				c-0.577,1.498-1.9,2.584-3.443,2.894c0.101,0.748,0.021,1.532-0.268,2.285c-0.579,1.499-1.902,2.585-3.444,2.894
				c0.102,0.748,0.021,1.533-0.268,2.287C39.142,64.686,37.396,65.884,35.484,65.884z M25.21,31.901l-7.355,3.267
				c-0.023,0.01-0.047,0.019-0.072,0.029c-2.125,0.82-3.809,2.501-4.622,4.609l-1.95,5.07c-1.594,4.143,0.477,8.809,4.617,10.403
				l19.114,7.359c0.767,0.297,1.666-0.116,1.956-0.868c0.298-0.777-0.091-1.655-0.869-1.954c-0.81-0.312-1.214-1.222-0.902-2.031
				c0.311-0.81,1.22-1.215,2.03-0.902l0,0c0.002,0,0.003,0,0.004,0.001l1.492,0.572c0.774,0.299,1.667-0.113,1.958-0.866
				c0.298-0.776-0.088-1.651-0.863-1.953l-0.007-0.003c-0.81-0.312-1.212-1.222-0.9-2.031s1.221-1.214,2.031-0.9h0.001l1.496,0.577
				c0.758,0.292,1.665-0.117,1.954-0.869c0.299-0.778-0.09-1.657-0.869-1.958l-1.485-0.57c-0.003-0.001-0.006-0.002-0.01-0.003
				c-0.81-0.312-1.213-1.222-0.903-2.031c0.312-0.81,1.219-1.212,2.031-0.902l0,0c0.768,0.294,1.667-0.115,1.955-0.867
				c0.146-0.378,0.136-0.79-0.028-1.159c-0.164-0.368-0.462-0.651-0.838-0.796l-16.227-6.249c-0.594-0.229-0.99-0.792-1.006-1.427
				c-0.016-0.636,0.352-1.219,0.933-1.476l4.21-1.869c0.361-0.162,0.639-0.455,0.783-0.825c0.142-0.37,0.132-0.772-0.029-1.133
				c-0.323-0.731-1.223-1.086-1.96-0.759l-5.596,2.485C25.257,31.883,25.234,31.893,25.21,31.901z"/>
			<path fill="#00BFDF" d="M42.521,48.984c-0.188,0-0.379-0.033-0.564-0.105l-12.131-4.67c-0.809-0.312-1.213-1.222-0.901-2.033
				c0.312-0.807,1.221-1.214,2.031-0.9l12.13,4.672c0.81,0.312,1.214,1.22,0.902,2.03C43.748,48.602,43.152,48.984,42.521,48.984z"
				/>
			<path fill="#00BFDF" d="M40.305,54.74c-0.187,0-0.378-0.032-0.564-0.105l-12.13-4.67c-0.81-0.312-1.214-1.221-0.902-2.03
				c0.312-0.811,1.219-1.218,2.031-0.901l12.13,4.67c0.81,0.312,1.213,1.221,0.901,2.03C41.531,54.357,40.937,54.74,40.305,54.74z"
				/>
			<path fill="#00BFDF" d="M36.592,59.922c-0.187,0-0.378-0.034-0.564-0.105l-10.634-4.095c-0.81-0.312-1.214-1.22-0.902-2.03
				c0.312-0.81,1.22-1.215,2.031-0.901l10.634,4.094c0.81,0.312,1.213,1.221,0.902,2.03C37.818,59.538,37.223,59.922,36.592,59.922z
				"/>
		</g>
	</g>
	<path fill="#00BFDF" d="M79.293,91.961H12.707c-6.986,0-12.669-5.683-12.669-12.669V12.706c0-6.985,5.684-12.668,12.669-12.668
		h66.586c6.986,0,12.67,5.683,12.67,12.668v66.586C91.963,86.278,86.279,91.961,79.293,91.961z M12.707,3.18
		c-5.253,0-9.527,4.273-9.527,9.526v66.586c0,5.253,4.274,9.526,9.527,9.526h66.586c5.254,0,9.527-4.273,9.527-9.526V12.706
		c0-5.253-4.273-9.526-9.527-9.526H12.707z"/>
</g>
</svg>
