<?xml version="1.0" encoding="utf-8"?>
<!-- Generator: Adobe Illustrator 16.0.0, SVG Export Plug-In . SVG Version: 6.00 Build 0)  -->
<!DOCTYPE svg PUBLIC "-//W3C//DTD SVG 1.1//EN" "http://www.w3.org/Graphics/SVG/1.1/DTD/svg11.dtd">
<svg version="1.1" id="Layer_1" xmlns="http://www.w3.org/2000/svg" xmlns:xlink="http://www.w3.org/1999/xlink" x="0px" y="0px"
	 width="92px" height="92px" viewBox="0 0 92 92" enable-background="new 0 0 92 92" xml:space="preserve">
<g>
	<g>
		<path fill="#00BFDF" d="M52.986,71.291H39.014c-6.896,0-12.506-5.61-12.506-12.506c0-0.868,0.703-1.572,1.571-1.572
			c0.868,0,1.571,0.704,1.571,1.572c0,5.162,4.2,9.363,9.363,9.363h13.972c5.163,0,9.363-4.201,9.363-9.363v-2.108
			c0-5.164-4.2-9.361-9.363-9.361H39.014c-6.896,0-12.506-5.611-12.506-12.508v-2.108c0-6.896,5.61-12.505,12.506-12.505h13.972
			c6.896,0,12.506,5.609,12.506,12.505c0,0.868-0.704,1.571-1.571,1.571c-0.868,0-1.571-0.703-1.571-1.571
			c0-5.163-4.2-9.362-9.363-9.362H39.014c-5.163,0-9.363,4.199-9.363,9.362v2.108c0,5.163,4.2,9.364,9.363,9.364h13.972
			c6.896,0,12.506,5.61,12.506,12.505v2.108C65.492,65.681,59.883,71.291,52.986,71.291z"/>
		<g>
			<path fill="#EF395F" d="M39.684,75.019c-0.868,0-1.572-0.703-1.572-1.572V19.245c0-0.867,0.704-1.57,1.572-1.57
				c0.867,0,1.571,0.703,1.571,1.57v54.201C41.255,74.315,40.551,75.019,39.684,75.019z"/>
			<path fill="#EF395F" d="M52.316,75.019c-0.867,0-1.571-0.703-1.571-1.572V19.245c0-0.867,0.704-1.57,1.571-1.57
				c0.868,0,1.572,0.703,1.572,1.57v54.201C53.889,74.315,53.185,75.019,52.316,75.019z"/>
		</g>
	</g>
	<path fill="#00BFDF" d="M79.293,91.962H12.707c-6.986,0-12.669-5.683-12.669-12.669V12.707c0-6.985,5.684-12.668,12.669-12.668
		h66.586c6.986,0,12.67,5.683,12.67,12.668v66.586C91.963,86.279,86.279,91.962,79.293,91.962z M12.707,3.181
		c-5.253,0-9.527,4.273-9.527,9.526v66.586c0,5.253,4.274,9.526,9.527,9.526h66.586c5.254,0,9.527-4.273,9.527-9.526V12.707
		c0-5.253-4.273-9.526-9.527-9.526H12.707z"/>
</g>
</svg>
