<?xml version="1.0" encoding="utf-8"?>
<!-- Generator: Adobe Illustrator 16.0.0, SVG Export Plug-In . SVG Version: 6.00 Build 0)  -->
<!DOCTYPE svg PUBLIC "-//W3C//DTD SVG 1.1//EN" "http://www.w3.org/Graphics/SVG/1.1/DTD/svg11.dtd">
<svg version="1.1" id="Layer_1" xmlns="http://www.w3.org/2000/svg" xmlns:xlink="http://www.w3.org/1999/xlink" x="0px" y="0px"
	 width="92px" height="92px" viewBox="0 0 92 92" enable-background="new 0 0 92 92" xml:space="preserve">
<g>
	<g>
		<g>
			<g>
				<g>
					<path fill="#00BFDF" d="M33.454,44.338c0-0.791,0.137-1.512,0.403-2.157c0.265-0.647,0.611-1.241,1.036-1.784
						c0.425-0.541,0.896-1.048,1.412-1.506c0.516-0.463,1.031-0.914,1.547-1.355c0.517-0.444,0.973-0.823,1.37-1.136
						c0.397-0.314,0.734-0.612,1.011-0.899c0.274-0.284,0.482-0.575,0.621-0.871c0.141-0.293,0.208-0.637,0.208-1.023
						c0-0.239-0.041-0.487-0.125-0.748c-0.083-0.256-0.222-0.482-0.416-0.676c-0.192-0.193-0.445-0.355-0.759-0.486
						c-0.313-0.126-0.71-0.19-1.189-0.19c-0.426,0-0.809,0.064-1.147,0.19c-0.344,0.131-0.646,0.298-0.914,0.501
						c-0.267,0.202-0.499,0.423-0.69,0.661c-0.194,0.242-0.356,0.475-0.487,0.692l-2.433-1.741c0.221-0.369,0.5-0.741,0.832-1.12
						c0.33-0.378,0.735-0.723,1.215-1.035c0.481-0.313,1.042-0.567,1.689-0.763c0.644-0.193,1.383-0.292,2.211-0.292
						c0.996,0,1.853,0.135,2.571,0.402c0.72,0.268,1.311,0.622,1.771,1.063c0.458,0.443,0.802,0.946,1.022,1.509
						c0.221,0.563,0.331,1.139,0.331,1.728c0,0.627-0.1,1.208-0.301,1.742c-0.204,0.535-0.471,1.035-0.803,1.494
						c-0.333,0.46-0.71,0.896-1.136,1.301c-0.422,0.406-0.858,0.792-1.298,1.162c-0.535,0.443-1.037,0.85-1.508,1.215
						c-0.472,0.371-0.881,0.732-1.23,1.08c-0.351,0.351-0.629,0.707-0.83,1.067c-0.204,0.357-0.305,0.758-0.305,1.2h7.521v2.961
						H33.454V44.338z"/>
					<path fill="#00BFDF" d="M46.005,40.438l7.608-11.341h3.264v11.313h1.799v2.766h-1.799v3.348h-3.125v-3.348h-7.747V40.438z
						 M53.752,40.411v-6.72l-4.594,6.72H53.752z"/>
				</g>
				<g>
					<path fill="#00BFDF" d="M32.901,48.924h2.733v5.814h7.185v-5.814h2.736V63.4h-2.736v-6.229h-7.185V63.4h-2.733V48.924z"/>
					<path fill="#00BFDF" d="M48.398,48.924h4.797c0.912,0,1.684,0.135,2.322,0.408c0.637,0.277,1.148,0.627,1.541,1.055
						c0.391,0.43,0.676,0.893,0.857,1.4c0.18,0.506,0.27,0.99,0.27,1.455c0,0.908-0.197,1.719-0.598,2.418
						c-0.395,0.703-1.008,1.266-1.832,1.684L59.1,63.4h-3.082l-2.932-5.709h-2.061V63.4h-2.627V48.924z M53.217,55.434
						c0.695,0,1.232-0.201,1.617-0.607s0.574-0.896,0.574-1.477c0-0.623-0.201-1.129-0.605-1.521
						c-0.408-0.387-0.936-0.584-1.586-0.584h-2.191v4.189H53.217z"/>
				</g>
			</g>
			<g>
				<g>
					<path fill="#00BFDF" d="M46.148,75.539h-1.479c-0.868,0-1.572-0.705-1.572-1.572s0.704-1.57,1.572-1.57h1.479
						c14.534,0,26.358-11.824,26.358-26.355c-0.002-12.526-8.9-23.395-21.16-25.844c-0.852-0.169-1.402-0.997-1.234-1.848
						c0.172-0.851,1.002-1.403,1.85-1.232c13.723,2.74,23.686,14.904,23.688,28.924C75.648,62.307,62.414,75.539,46.148,75.539z"/>
					<g>
						<path fill="#EF395F" d="M44.669,75.539c-0.402,0-0.804-0.152-1.111-0.461c-0.614-0.613-0.614-1.607,0-2.223l3.665-3.666
							c0.613-0.613,1.607-0.613,2.223,0c0.613,0.613,0.613,1.609,0,2.223l-3.665,3.666C45.474,75.387,45.071,75.539,44.669,75.539z"
							/>
						<path fill="#EF395F" d="M48.334,79.205c-0.402,0-0.805-0.152-1.111-0.461l-3.665-3.666c-0.613-0.615-0.613-1.607,0-2.223
							c0.614-0.613,1.608-0.613,2.222,0.002l3.665,3.666c0.613,0.613,0.613,1.609,0,2.223
							C49.137,79.053,48.736,79.205,48.334,79.205z"/>
					</g>
				</g>
				<g>
					<path fill="#00BFDF" d="M40.348,74.912c-0.103,0-0.206-0.01-0.31-0.031c-13.723-2.744-23.684-14.91-23.686-28.925
						c0-16.265,13.232-29.496,29.498-29.496h1.482c0.867,0,1.57,0.703,1.57,1.57c0,0.869-0.703,1.572-1.57,1.572H45.85
						c-14.532,0-26.355,11.822-26.355,26.354c0.001,12.523,8.9,23.392,21.16,25.845c0.851,0.17,1.402,0.998,1.232,1.85
						C41.737,74.396,41.081,74.912,40.348,74.912z"/>
					<g>
						<path fill="#EF395F" d="M43.666,23.265c-0.402,0-0.804-0.153-1.111-0.46c-0.613-0.614-0.613-1.608,0.001-2.223l3.665-3.663
							c0.615-0.614,1.61-0.613,2.223,0c0.613,0.615,0.613,1.608,0,2.222l-3.666,3.664C44.47,23.112,44.068,23.265,43.666,23.265z"/>
						<path fill="#EF395F" d="M47.332,19.602c-0.403,0-0.805-0.153-1.112-0.461l-3.665-3.666c-0.614-0.613-0.613-1.607,0-2.222
							c0.614-0.613,1.608-0.613,2.222,0l3.666,3.666c0.613,0.614,0.613,1.608,0,2.222C48.137,19.449,47.734,19.602,47.332,19.602z"
							/>
					</g>
				</g>
			</g>
		</g>
	</g>
	<path fill="#00BFDF" d="M79.293,91.961H12.707c-6.986,0-12.669-5.682-12.669-12.668V12.707c0-6.985,5.683-12.668,12.669-12.668
		h66.586c6.986,0,12.67,5.683,12.67,12.668v66.586C91.963,86.279,86.279,91.961,79.293,91.961z M12.707,3.18
		c-5.253,0-9.527,4.273-9.527,9.526v66.586c0,5.252,4.273,9.525,9.527,9.525h66.586c5.254,0,9.527-4.273,9.527-9.525V12.707
		c0-5.253-4.273-9.526-9.527-9.526H12.707z"/>
</g>
</svg>
